<?xml version="1.0" encoding="UTF-8" standalone="no"?>
<!-- Created with Inkscape (http://www.inkscape.org/) -->

<svg
   xmlns:dc="http://purl.org/dc/elements/1.1/"
   xmlns:cc="http://creativecommons.org/ns#"
   xmlns:rdf="http://www.w3.org/1999/02/22-rdf-syntax-ns#"
   xmlns:svg="http://www.w3.org/2000/svg"
   xmlns="http://www.w3.org/2000/svg"
   xmlns:xlink="http://www.w3.org/1999/xlink"
   xmlns:sodipodi="http://sodipodi.sourceforge.net/DTD/sodipodi-0.dtd"
   xmlns:inkscape="http://www.inkscape.org/namespaces/inkscape"
   width="1052.3622"
   height="744.09448"
   id="svg2"
   sodipodi:version="0.32"
   inkscape:version="0.48.0 r9654"
   sodipodi:docname="wheels.svg"
   inkscape:output_extension="org.inkscape.output.svg.inkscape"
   version="1.0"
   inkscape:export-filename="/home/arnaud/robot/src/skills/vision/driving/graphics/wheel_real.png"
   inkscape:export-xdpi="272"
   inkscape:export-ydpi="272">
  <defs
     id="defs4">
    <linearGradient
       id="linearGradient3504">
      <stop
         style="stop-color:#004c00;stop-opacity:1;"
         offset="0"
         id="stop3506" />
      <stop
         style="stop-color:#008000;stop-opacity:1;"
         offset="1"
         id="stop3508" />
    </linearGradient>
    <inkscape:perspective
       sodipodi:type="inkscape:persp3d"
       inkscape:vp_x="0 : 526.18109 : 1"
       inkscape:vp_y="0 : 1000 : 0"
       inkscape:vp_z="744.09448 : 526.18109 : 1"
       inkscape:persp3d-origin="372.04724 : 350.78739 : 1"
       id="perspective10" />
    <inkscape:perspective
       id="perspective2471"
       inkscape:persp3d-origin="372.04724 : 350.78739 : 1"
       inkscape:vp_z="744.09448 : 526.18109 : 1"
       inkscape:vp_y="0 : 1000 : 0"
       inkscape:vp_x="0 : 526.18109 : 1"
       sodipodi:type="inkscape:persp3d" />
    <inkscape:perspective
       id="perspective2452"
       inkscape:persp3d-origin="372.04724 : 350.78739 : 1"
       inkscape:vp_z="744.09448 : 526.18109 : 1"
       inkscape:vp_y="0 : 1000 : 0"
       inkscape:vp_x="0 : 526.18109 : 1"
       sodipodi:type="inkscape:persp3d" />
    <inkscape:perspective
       id="perspective2587"
       inkscape:persp3d-origin="372.04724 : 350.78739 : 1"
       inkscape:vp_z="744.09448 : 526.18109 : 1"
       inkscape:vp_y="0 : 1000 : 0"
       inkscape:vp_x="0 : 526.18109 : 1"
       sodipodi:type="inkscape:persp3d" />
    <inkscape:perspective
       id="perspective3490"
       inkscape:persp3d-origin="372.04724 : 350.78739 : 1"
       inkscape:vp_z="744.09448 : 526.18109 : 1"
       inkscape:vp_y="0 : 1000 : 0"
       inkscape:vp_x="0 : 526.18109 : 1"
       sodipodi:type="inkscape:persp3d" />
    <inkscape:perspective
       id="perspective3259"
       inkscape:persp3d-origin="372.04724 : 350.78739 : 1"
       inkscape:vp_z="744.09448 : 526.18109 : 1"
       inkscape:vp_y="0 : 1000 : 0"
       inkscape:vp_x="0 : 526.18109 : 1"
       sodipodi:type="inkscape:persp3d" />
    <inkscape:perspective
       id="perspective3330"
       inkscape:persp3d-origin="372.04724 : 350.78739 : 1"
       inkscape:vp_z="744.09448 : 526.18109 : 1"
       inkscape:vp_y="0 : 1000 : 0"
       inkscape:vp_x="0 : 526.18109 : 1"
       sodipodi:type="inkscape:persp3d" />
    <inkscape:perspective
       id="perspective3465"
       inkscape:persp3d-origin="372.04724 : 350.78739 : 1"
       inkscape:vp_z="744.09448 : 526.18109 : 1"
       inkscape:vp_y="0 : 1000 : 0"
       inkscape:vp_x="0 : 526.18109 : 1"
       sodipodi:type="inkscape:persp3d" />
    <inkscape:perspective
       sodipodi:type="inkscape:persp3d"
       inkscape:vp_x="0 : 526.18109 : 1"
       inkscape:vp_y="0 : 1000 : 0"
       inkscape:vp_z="744.09448 : 526.18109 : 1"
       inkscape:persp3d-origin="372.04724 : 350.78739 : 1"
       id="perspective2547" />
    <inkscape:perspective
       sodipodi:type="inkscape:persp3d"
       inkscape:vp_x="0 : 526.18109 : 1"
       inkscape:vp_y="0 : 1000 : 0"
       inkscape:vp_z="744.09448 : 526.18109 : 1"
       inkscape:persp3d-origin="372.04724 : 350.78739 : 1"
       id="perspective2545" />
    <inkscape:perspective
       sodipodi:type="inkscape:persp3d"
       inkscape:vp_x="0 : 526.18109 : 1"
       inkscape:vp_y="0 : 1000 : 0"
       inkscape:vp_z="744.09448 : 526.18109 : 1"
       inkscape:persp3d-origin="372.04724 : 350.78739 : 1"
       id="perspective2543" />
    <inkscape:perspective
       sodipodi:type="inkscape:persp3d"
       inkscape:vp_x="0 : 526.18109 : 1"
       inkscape:vp_y="0 : 1000 : 0"
       inkscape:vp_z="744.09448 : 526.18109 : 1"
       inkscape:persp3d-origin="372.04724 : 350.78739 : 1"
       id="perspective2541" />
    <inkscape:perspective
       id="perspective2539"
       inkscape:persp3d-origin="372.04724 : 350.78739 : 1"
       inkscape:vp_z="744.09448 : 526.18109 : 1"
       inkscape:vp_y="0 : 1000 : 0"
       inkscape:vp_x="0 : 526.18109 : 1"
       sodipodi:type="inkscape:persp3d" />
    <linearGradient
       id="linearGradient2533">
      <stop
         id="stop2535"
         offset="0"
         style="stop-color:#004c00;stop-opacity:1;" />
      <stop
         id="stop2537"
         offset="1"
         style="stop-color:#008000;stop-opacity:1;" />
    </linearGradient>
    <inkscape:perspective
       id="perspective3444"
       inkscape:persp3d-origin="372.04724 : 350.78739 : 1"
       inkscape:vp_z="744.09448 : 526.18109 : 1"
       inkscape:vp_y="0 : 1000 : 0"
       inkscape:vp_x="0 : 526.18109 : 1"
       sodipodi:type="inkscape:persp3d" />
  </defs>
  <sodipodi:namedview
     id="base"
     pagecolor="#ffffff"
     bordercolor="#666666"
     borderopacity="1.0"
     inkscape:pageopacity="1"
     inkscape:pageshadow="2"
     inkscape:zoom="0.64854097"
     inkscape:cx="1339.4038"
     inkscape:cy="294.36325"
     inkscape:document-units="px"
     inkscape:current-layer="layer1"
     showgrid="false"
     inkscape:window-width="1323"
     inkscape:window-height="741"
     inkscape:window-x="0"
     inkscape:window-y="0"
     borderlayer="true"
     inkscape:window-maximized="0" />
  <metadata
     id="metadata7">
    <rdf:RDF>
      <cc:Work
         rdf:about="">
        <dc:format>image/svg+xml</dc:format>
        <dc:type
           rdf:resource="http://purl.org/dc/dcmitype/StillImage" />
      </cc:Work>
    </rdf:RDF>
  </metadata>
  <g
     inkscape:label="Capa 1"
     inkscape:groupmode="layer"
     id="layer1">
    <image
       sodipodi:absref="/home/arnaud/7-phd/manager/vision/skills/driving/graphics/wheel_lab_logo.png"
       xlink:href="wheel_lab_logo.png"
       width="181.09325"
       height="168.05807"
       id="image3261"
       x="435.63449"
       y="295.01819" />
    <path
       sodipodi:type="arc"
       style="fill:none;fill-opacity:1;stroke:#000000;stroke-width:0.64452255;stroke-linecap:round;stroke-linejoin:round;stroke-miterlimit:4;stroke-dasharray:none;stroke-opacity:1"
       id="path2421"
       sodipodi:cx="299.6886"
       sodipodi:cy="497.5582"
       sodipodi:rx="161.71875"
       sodipodi:ry="169.63506"
       d="M 461.40735,497.5582 A 161.71875,169.63506 0 1 1 137.96985,497.5582 A 161.71875,169.63506 0 1 1 461.40735,497.5582 z"
       transform="matrix(2.3835855,0,0,2.2723515,-188.15231,-758.57987)" />
    <rect
       style="fill:none;fill-opacity:1;stroke:#000000;stroke-width:88.58267717;stroke-linecap:butt;stroke-linejoin:miter;stroke-miterlimit:4;stroke-dasharray:none;stroke-opacity:1"
       id="rect3193"
       width="341.98492"
       height="341.98489"
       x="355.18866"
       y="201.05479" />
    <path
       style="fill:#0000ff"
       d="M 524.89283,737.82202 C 517.57793,737.16222 510.42255,734.59881 504.14299,730.38843 C 502.08942,729.01153 500.57147,727.72865 498.15774,725.33008 C 494.41795,721.61377 493.17758,719.85498 490.3667,714.28273 C 486.8638,707.33863 485.45854,701.12116 485.75337,693.8714 C 486.18578,683.23809 490.02146,674.03526 497.33984,666.0723 C 504.36016,658.43366 513.41682,653.79914 523.83117,652.51601 C 527.32268,652.08584 533.73517,652.35635 537.09127,653.0754 C 548.62414,655.54634 557.92349,661.98421 564.62017,672.13345 C 569.10645,678.9327 571.43927,686.94246 571.43142,695.52001 C 571.4251,702.43846 570.19359,707.6817 567.06938,714.0917 C 562.30791,723.86089 554.6903,730.84799 544.38164,734.90158 C 542.93144,735.47182 540.92529,736.16106 539.92353,736.43322 C 535.36684,737.67118 529.36675,738.22557 524.89283,737.82202 z M 526.71901,735.31517 C 527.11588,734.57361 527.00105,734.27145 526.49606,734.72847 C 526.01642,735.16254 524.07546,735.26227 523.68605,734.87286 C 523.50961,734.69642 523.83827,731.10816 524.11418,730.19862 C 524.18112,729.97794 524.4095,729.78607 524.62169,729.77226 C 524.83387,729.75844 524.54969,729.65735 523.99018,729.54762 C 522.8779,729.32947 522.63869,729.40236 523.00062,729.84916 C 523.21566,730.11461 522.90708,733.1244 522.49699,734.7614 C 522.38111,735.22397 522.49039,735.26809 524.26367,735.47461 C 525.30328,735.59569 526.22763,735.70913 526.31777,735.72671 C 526.40791,735.74428 526.58847,735.55909 526.71901,735.31517 z M 532.82405,735.19275 C 534.11362,734.34779 534.51718,732.48514 533.7374,730.9772 C 532.76238,729.09173 529.6019,729.13952 528.69367,731.05347 C 527.32357,733.94073 530.25354,736.87701 532.82405,735.19275 z M 530.11964,734.89886 C 529.21754,733.85572 529.01184,731.90898 529.68676,730.80215 C 530.76214,729.03859 532.99159,729.94279 533.14803,732.20594 C 533.24818,733.65462 533.12819,734.19327 532.58414,734.73732 C 531.90441,735.41705 530.63947,735.49996 530.11964,734.89886 z M 519.81943,734.46358 C 519.64636,734.2557 519.27976,733.55926 519.00478,732.91594 L 518.5048,731.74626 L 519.00478,731.5509 C 519.9991,731.16239 520.19618,731.00084 520.41086,730.39834 C 520.71846,729.53502 519.87956,728.75713 518.04039,728.20028 C 516.77188,727.8162 516.61806,727.80778 516.74138,728.12916 C 516.93882,728.64367 515.56097,732.94612 515.11966,733.19308 C 514.83696,733.35129 514.97097,733.45233 515.71347,733.6408 C 516.52433,733.84661 516.65262,733.8327 516.5444,733.55069 C 516.36395,733.08045 516.91498,731.15091 517.20299,731.24451 C 517.33402,731.2871 517.74316,732.0582 518.11218,732.95807 C 518.73453,734.47572 518.98129,734.7441 519.81943,734.81494 C 520.08614,734.83748 520.08614,734.78393 519.81943,734.46358 z M 517.49855,731.01501 C 517.01859,730.88958 517.01648,730.85259 517.42261,729.68274 C 517.78331,728.64374 518.24203,728.4469 519.05747,728.9812 C 520.39949,729.86053 519.17814,731.45393 517.49855,731.01501 z M 539.10286,734.29763 C 539.41519,734.15483 539.7729,733.74747 539.89777,733.3924 C 540.25446,732.37816 539.69909,731.64181 538.19236,731.13122 C 537.49949,730.89643 536.74,730.51173 536.5046,730.27633 C 536.08679,729.85852 536.08812,729.83681 536.56064,729.36429 C 537.19222,728.73271 537.54706,728.75381 538.40276,729.47384 C 539.19503,730.14049 539.20227,730.13568 538.86475,729.16747 C 538.63475,728.50766 538.56833,728.47587 537.66103,728.59119 C 536.38852,728.75293 535.92223,729.01669 535.65193,729.72763 C 535.31445,730.61526 535.87693,731.26652 537.52434,731.89559 C 538.46214,732.25369 539.0037,732.60353 539.12411,732.92902 C 539.58214,734.16718 537.79592,734.70917 536.66217,733.67603 C 536.12233,733.18409 536.07402,733.17337 536.23149,733.5805 C 536.32904,733.83271 536.45789,734.20857 536.51781,734.41575 C 536.60392,734.71349 536.82676,734.7678 537.58088,734.67486 C 538.10564,734.61018 538.79053,734.44042 539.10286,734.29763 z M 512.92294,729.45205 C 512.95995,727.62431 512.92174,726.1289 512.83801,726.1289 C 512.75428,726.1289 511.73272,726.92851 510.56786,727.90582 C 509.40301,728.88312 508.26737,729.78917 508.04422,729.91925 C 507.67796,730.13276 507.69975,730.18366 508.26831,730.44271 C 508.79974,730.68485 508.87851,730.67858 508.7726,730.40257 C 508.70356,730.22267 508.89732,729.84038 509.20317,729.55306 L 509.75925,729.03064 L 510.9062,729.56784 C 512.11363,730.13337 512.25151,730.43339 511.7493,731.40234 C 511.4728,731.93579 511.50086,732.00164 512.15392,732.35196 C 512.53986,732.55899 512.85563,732.73892 512.85563,732.75179 C 512.85563,732.76466 512.88592,731.27978 512.92294,729.45205 z M 510.80646,729.18516 L 510.13297,728.82058 L 511.10855,727.91057 C 511.64511,727.41007 512.11744,727.03659 512.15816,727.08061 C 512.3512,727.28931 511.96447,729.56702 511.73738,729.55892 C 511.5958,729.55387 511.17688,729.38568 510.80646,729.18516 z M 547.47521,730.75605 C 546.99513,730.69583 546.70989,730.31941 545.85598,728.61916 C 545.18628,727.28571 544.86978,726.39688 544.96163,726.1075 C 545.09751,725.67937 545.05623,725.6826 544.0247,726.18087 C 543.18937,726.58436 543.05353,726.71832 543.42331,726.77392 C 543.95622,726.85404 546.02946,730.45566 546.03869,731.31735 L 546.04392,731.80556 L 547.05093,731.31735 C 547.96998,730.87179 548.00704,730.82275 547.47521,730.75605 z M 550.8588,729.1227 C 551.20558,728.94887 551.48932,728.71395 551.48932,728.60064 C 551.48932,728.48734 551.40701,728.4455 551.30641,728.50768 C 551.00005,728.69702 550.70661,728.3837 549.33301,726.4006 C 548.58231,725.31681 548.06785,724.34988 548.14078,724.15982 C 548.28245,723.79065 547.87102,723.9573 547.01836,724.61448 C 546.66486,724.88694 546.64017,724.96958 546.91058,724.97521 C 547.2803,724.98289 549.96078,728.76683 549.96078,729.28107 C 549.96078,729.44594 550.02097,729.54887 550.09453,729.50979 C 550.16809,729.47071 550.51201,729.29652 550.8588,729.1227 z M 505.86259,728.19242 C 505.86259,728.06631 505.6483,727.96314 505.3864,727.96314 C 504.66736,727.96314 503.56979,726.74783 503.56979,725.95166 C 503.56979,725.21914 504.65317,723.55011 505.38176,723.16018 C 506.09616,722.77784 507.12454,722.87816 507.78055,723.39418 C 508.25349,723.76619 508.38467,724.06873 508.38467,724.78745 L 508.38467,725.70552 L 508.95787,725.02431 C 509.62564,724.23072 509.66262,724.06538 509.17235,724.06538 C 508.97505,724.06538 508.55897,723.76274 508.24773,723.39284 C 505.97027,720.68624 501.59948,723.67164 503.22824,726.82133 C 503.58153,727.50451 504.11651,727.88724 505.16136,728.20429 C 505.48399,728.30219 505.77375,728.39115 505.80527,728.40199 C 505.8368,728.41283 505.86259,728.31852 505.86259,728.19242 z M 535.31754,727.49551 C 544.99704,725.62756 553.2972,719.32798 558.02233,710.26322 C 562.01146,702.61044 562.76807,693.21059 560.06239,684.91812 C 556.38232,673.63931 546.06825,664.7579 534.29332,662.72848 C 531.47496,662.24273 526.17929,662.23347 523.28787,662.70923 C 516.09729,663.89238 509.93137,667.18885 504.68501,672.65481 C 500.31767,677.20496 497.44345,682.51358 496.20734,688.31291 C 495.51226,691.5739 495.44299,698.63556 496.07704,701.59594 C 498.85455,714.56422 508.93336,724.83628 521.3688,727.37263 C 525.86667,728.29003 530.9676,728.33496 535.31754,727.49551 z M 528.87245,725.65753 C 528.24539,725.42329 527.64419,724.56914 527.64419,723.91251 C 527.64419,723.16393 528.56716,722.21904 529.48206,722.03097 L 530.28091,721.86676 L 530.28091,720.09969 C 530.28091,719.1278 530.3325,718.33273 530.39555,718.33288 C 530.45861,718.33302 530.51019,717.71939 530.51019,716.96926 C 530.51019,715.61089 530.14708,714.80781 529.73265,715.24956 C 529.42281,715.57982 529.29023,718.30709 529.57879,718.41459 C 529.74782,718.47757 529.74926,718.58369 529.5835,718.76138 C 529.40789,718.94964 529.14499,718.94207 528.59054,718.73279 C 527.91881,718.47924 527.80087,718.49675 527.51103,718.89314 C 527.08404,719.47709 527.09761,720.39847 527.54255,721.03372 C 527.99036,721.67306 528.79201,721.70204 528.95344,721.08474 C 529.10811,720.49327 529.70771,720.48686 529.70771,721.07667 C 529.70771,722.07003 527.59903,722.36619 526.79339,721.48598 C 525.72806,720.32204 525.99773,719.05637 527.47123,718.30465 L 528.3543,717.85414 L 528.28585,716.54612 C 528.23459,715.56671 528.13099,715.2381 527.87347,715.2381 C 527.61872,715.2381 527.49983,715.59476 527.41491,716.61378 C 527.31402,717.8245 527.23841,717.99824 526.78439,718.06272 C 526.32792,718.12755 526.26746,718.03515 526.25933,717.26024 L 526.25015,716.3845 L 525.9253,716.98217 C 525.74663,717.31089 525.33806,717.75176 525.01736,717.96189 C 524.69666,718.17202 524.43585,718.47054 524.43778,718.62526 C 524.4401,718.81034 524.51366,718.79217 524.65283,718.57217 C 524.80461,718.33221 524.9096,718.57881 525.02453,719.44521 C 525.11263,720.10932 525.36546,720.8759 525.58639,721.14873 C 525.9549,721.60382 525.95741,721.66722 525.61677,721.91629 C 525.30276,722.14591 525.33649,722.1704 525.83545,722.07502 C 527.02465,721.84768 527.76846,723.73732 526.71227,724.30258 C 526.33367,724.5052 526.29339,724.62156 526.51107,724.88385 C 526.66075,725.06421 526.92535,725.21178 527.09907,725.21178 C 527.27278,725.21178 527.41491,725.31495 527.41491,725.44106 C 527.41491,725.7499 526.19461,725.734 525.88169,725.42108 C 525.7022,725.24159 525.58931,725.24159 525.47838,725.42108 C 525.39365,725.55817 525.04669,725.6701 524.70734,725.66981 C 524.09236,725.66928 524.09035,725.66368 524.09035,723.94726 C 524.09035,722.47286 524.15137,722.20591 524.51467,722.09077 C 524.82343,721.99293 524.87026,721.88757 524.68663,721.70394 C 524.50301,721.52032 524.35934,721.52652 524.15914,721.72672 C 523.75786,722.128 522.44734,722.07358 522.28436,721.64887 C 522.1076,721.18823 522.55293,720.49197 523.2182,720.18885 C 523.88453,719.88525 523.92607,719.02526 523.28253,718.85697 C 522.85241,718.74449 522.84718,718.71479 523.21076,718.44893 C 523.57434,718.18308 523.56877,718.15138 523.13424,718.01347 C 522.87649,717.93166 522.55466,717.63485 522.41906,717.35389 C 522.17838,716.85522 522.17214,716.85807 522.15699,717.47358 C 522.1466,717.89596 522.01868,718.1041 521.76948,718.1041 C 521.46027,718.1041 521.44702,718.16379 521.69098,718.45773 C 522.08422,718.93155 521.60855,719.49712 521.1785,719.06707 C 520.80259,718.69117 519.84867,718.71816 519.84867,719.10471 C 519.84867,719.27673 520.31297,719.59479 520.88043,719.81151 C 521.6831,720.11805 521.91219,720.32072 521.91219,720.72424 C 521.91219,721.33389 521.27637,721.97402 520.52759,722.11822 C 519.55828,722.30489 518.92004,721.26115 519.85412,721.01688 C 520.19579,720.92753 520.30158,720.99605 520.25536,721.27674 C 520.17414,721.77002 520.85081,721.77915 520.94577,721.28606 C 520.99415,721.03482 520.71623,720.79368 520.08911,720.54275 C 519.35986,720.25096 519.16083,720.05155 519.16083,719.61265 C 519.16083,718.97296 519.62019,718.43556 520.36591,718.20285 C 521.06488,717.98473 521.21673,717.69505 521.22084,716.57191 C 521.22367,715.80096 521.13105,715.58331 520.74852,715.46189 C 520.0917,715.25343 519.98298,715.42792 519.84996,716.9041 C 519.73925,718.13263 519.70307,718.19404 519.04619,718.26827 L 518.35835,718.346 L 518.35835,714.38461 C 518.35835,711.08549 518.41585,710.39716 518.70227,710.26737 C 519.33823,709.97919 519.62953,710.07611 519.84705,710.64822 C 520.03101,711.13207 520.16691,711.19644 520.75582,711.07866 C 521.21133,710.98756 521.64533,711.06928 522.02416,711.3175 C 522.53282,711.65079 522.60003,711.85477 522.60003,713.06522 C 522.60003,714.39341 522.5814,714.43562 521.9949,714.43562 C 521.40283,714.43562 521.39272,714.41065 521.52664,713.27988 C 521.65343,712.20937 521.62151,712.10501 521.0938,711.86457 C 520.31855,711.51134 520.14537,711.76834 520.0325,713.43958 L 519.93718,714.85098 L 520.66959,714.73213 C 521.21074,714.64431 521.52425,714.73551 521.87009,715.08135 C 522.33305,715.54431 522.34374,715.5446 522.8481,715.10716 C 523.12857,714.86392 523.49702,714.6649 523.66688,714.6649 C 524.08595,714.6649 524.05632,714.49578 523.51715,713.81034 C 523.26495,713.48971 523.05859,713.00265 523.05859,712.72799 C 523.05859,712.02687 524.16018,711.06162 525.1728,710.87545 C 525.92267,710.73758 526.11005,710.80268 526.72044,711.41307 C 527.10609,711.79872 527.41491,712.3512 527.41491,712.65548 C 527.41491,713.27798 526.32576,714.43562 525.74009,714.43562 C 525.52631,714.43562 525.35139,714.46539 525.35139,714.50178 C 525.35139,714.75497 526.23407,716.22788 526.32894,716.133 C 526.52562,715.93633 526.23389,715.12346 525.96664,715.12346 C 525.7956,715.12346 525.79207,715.04963 525.95531,714.88639 C 526.08569,714.75601 526.58977,714.62704 527.07548,714.59979 L 527.95859,714.55026 L 527.89756,713.06205 C 527.864,712.24354 527.73874,711.51341 527.61922,711.43954 C 527.49969,711.36567 527.67846,711.17922 528.01649,711.02521 C 528.42665,710.83833 528.70742,710.82153 528.8606,710.97471 C 529.01378,711.12789 529.24061,711.12369 529.54256,710.9621 C 529.85819,710.79318 530.15411,710.79245 530.52119,710.95971 C 530.89306,711.12914 531.2476,711.12388 531.73009,710.94176 C 532.28606,710.73191 532.51963,710.75408 532.98835,711.06119 C 533.48216,711.38475 533.575,711.64012 533.64201,712.85913 C 533.70338,713.97545 533.64641,714.29902 533.37619,714.36894 C 532.85112,714.50482 533.03248,718.00093 533.60217,718.72518 C 534.09458,719.35117 533.97571,720.03953 533.2903,720.53122 L 532.80299,720.8808 L 533.49083,721.44019 C 533.86915,721.74785 534.04518,722.00009 533.88202,722.00072 C 533.71887,722.00134 533.61569,722.18242 533.65274,722.4031 C 533.69815,722.67353 533.58931,722.78565 533.31887,722.74702 C 533.09819,722.71549 532.73708,722.6639 532.51639,722.63238 C 531.8096,722.53141 532.08738,723.18414 532.91763,723.57521 C 533.85647,724.01744 534.05381,724.71318 533.40656,725.29893 C 532.80829,725.84036 531.65659,725.72194 531.65659,725.11899 C 531.65659,724.87881 531.83001,724.65684 532.04196,724.62573 C 532.30139,724.58766 532.38412,724.68177 532.29511,724.91373 C 532.20089,725.15925 532.28783,725.23422 532.59758,725.17457 C 533.2768,725.04377 533.11159,724.67953 532.17247,724.23734 C 531.11956,723.74156 530.99474,722.90859 531.88587,722.32469 C 532.55102,721.88887 532.60691,721.64909 532.08963,721.45059 C 531.82527,721.34914 531.758,721.40738 531.85315,721.65534 C 531.95658,721.92487 531.80319,722.00186 531.16276,722.00186 C 530.45108,722.00186 530.37875,722.04926 530.62943,722.35132 C 531.0409,722.84711 530.73155,723.04121 530.03542,722.72403 C 529.38263,722.4266 529.01987,722.54201 529.01987,723.04715 C 529.01987,723.36824 529.40176,723.48544 530.22359,723.41657 C 530.44428,723.39807 530.62483,723.47386 530.62483,723.58499 C 530.62483,723.83358 530.0545,724.06538 529.44287,724.06538 C 528.88107,724.06538 528.94857,724.70487 529.54918,725.07256 C 529.87683,725.27314 530.02648,725.24221 530.2623,724.92518 C 530.57526,724.50443 531.08339,724.38064 531.08339,724.72514 C 531.08339,725.28339 529.5744,725.91976 528.87245,725.65753 z M 526.23768,723.89934 C 526.37802,723.64856 526.37924,723.35515 526.24101,723.09686 C 525.89017,722.44132 525.58067,722.6266 525.58067,723.49218 C 525.58067,724.35436 525.87943,724.5395 526.23768,723.89934 z M 524.1638,721.24901 C 524.52933,720.80858 524.12399,720.31894 523.54578,720.50245 C 523.06935,720.65367 522.90669,721.08569 523.21145,721.39044 C 523.45511,721.63411 523.8989,721.5682 524.1638,721.24901 z M 532.91763,719.74685 C 532.91763,719.27108 532.49197,718.79194 532.0693,718.79194 C 531.76373,718.79194 531.63609,720.18533 531.91602,720.46526 C 532.16394,720.71318 532.91763,720.17259 532.91763,719.74685 z M 532.22979,716.48246 C 532.22979,715.45175 532.13806,715.09281 531.82855,714.91254 C 531.47861,714.70872 531.5006,714.67794 532.00051,714.67175 C 532.5489,714.66497 532.57371,714.60375 532.57371,713.2573 C 532.57371,712.18153 532.48177,711.7918 532.18347,711.60324 C 531.62205,711.24834 531.46847,711.51984 531.35672,713.06476 C 531.28076,714.11486 531.17342,714.43562 530.89796,714.43562 C 530.61785,714.43562 530.64928,714.53895 531.04016,714.90311 C 531.45821,715.29258 531.54195,715.62251 531.54195,716.88006 C 531.54195,718.19581 531.58609,718.3529 531.88587,718.1041 C 532.11959,717.91013 532.22979,717.39049 532.22979,716.48246 z M 518.87015,715.06614 C 518.82188,714.53019 518.78239,714.96869 518.78239,716.04058 C 518.78239,717.11246 518.82188,717.55096 518.87015,717.01502 C 518.91842,716.47907 518.91842,715.60208 518.87015,715.06614 z M 524.98294,717.28286 C 525.26124,716.55765 525.11171,715.83001 524.61254,715.48038 C 524.33227,715.28407 524.02274,715.12346 523.9247,715.12346 C 523.70766,715.12346 523.68455,717.27795 523.89929,717.49268 C 524.18271,717.7761 524.84271,717.64831 524.98294,717.28286 z M 523.50262,716.0979 C 523.48923,715.306 523.47047,715.28218 523.26506,715.79633 C 523.1424,716.10336 523.09411,716.49027 523.15776,716.65613 C 523.36937,717.20759 523.51733,716.96809 523.50262,716.0979 z M 529.99431,714.52366 C 530.52588,714.33617 530.57071,712.11505 530.05163,711.68426 C 529.44429,711.18021 529.01987,711.8048 529.01987,713.20265 C 529.01987,714.0343 528.92659,714.43676 528.73327,714.43913 C 528.54225,714.44147 528.56136,714.51668 528.79059,714.66468 C 528.97975,714.7868 529.23769,714.83688 529.36379,714.77596 C 529.4899,714.71504 529.77363,714.6015 529.99431,714.52366 z M 518.8693,711.5123 C 518.81983,711.03941 518.77936,711.42632 518.77936,712.3721 C 518.77936,713.31788 518.81983,713.70479 518.8693,713.2319 C 518.91876,712.75901 518.91876,711.98519 518.8693,711.5123 z M 526.22374,713.0244 C 526.2787,712.3651 526.18225,712.1084 525.77148,711.82068 C 524.88416,711.19918 524.66355,711.35083 524.66355,712.58227 C 524.66355,713.74562 524.85086,713.98591 525.69531,713.90588 C 526.04752,713.8725 526.17008,713.66805 526.22374,713.0244 z M 534.52502,721.66086 C 534.13938,721.19619 534.37941,720.68637 535.20501,720.21656 C 535.94025,719.79816 536.09451,719.24023 535.59058,718.822 C 535.42135,718.68155 535.23955,718.59153 535.18659,718.62197 C 535.13364,718.6524 535.23663,718.55096 535.41547,718.39655 C 535.89997,717.97823 536.01394,715.73416 535.56942,715.36524 C 534.91054,714.81842 534.55056,715.24488 534.47707,716.65938 C 534.41576,717.8393 534.34972,717.99773 533.89208,718.06272 C 533.39663,718.13309 533.37619,718.06822 533.37619,716.42497 C 533.37619,715.03815 533.44875,714.68612 533.7591,714.56702 C 533.9697,714.48621 534.21382,714.53627 534.30158,714.67826 C 534.41857,714.86757 534.5809,714.86165 534.91006,714.65609 C 535.35021,714.38121 535.34857,714.36531 534.82615,713.8429 C 533.93886,712.9556 534.20833,711.74783 535.43512,711.11343 C 536.52981,710.54735 537.38006,710.66919 538.0718,711.49128 C 539.0655,712.67222 538.42834,714.08965 536.78572,714.35231 C 535.95136,714.48573 535.934,714.5064 536.35532,714.86472 C 536.82846,715.2671 537.03901,717.35394 536.69129,718.19457 C 536.56819,718.49217 536.63164,718.71674 536.89278,718.90769 C 537.10243,719.06099 537.27396,719.40046 537.27396,719.66209 C 537.27396,720.47855 537.70333,721.31362 538.12808,721.3232 C 538.41989,721.32978 538.3523,721.43141 537.88915,721.68247 C 537.41596,721.93897 537.16291,721.96585 536.9426,721.783 C 536.73278,721.60887 536.45571,721.60423 536.02588,721.76765 C 535.18849,722.08603 534.85838,722.06254 534.52502,721.66086 z M 536.35684,720.86899 C 536.35684,720.28373 535.96215,720.05846 535.54431,720.40523 C 535.01984,720.84051 535.14454,721.31402 535.78364,721.31402 C 536.19817,721.31402 536.35684,721.19083 536.35684,720.86899 z M 537.2281,713.70192 C 537.89161,713.03841 537.25258,711.45498 536.3213,711.45498 C 536.00246,711.45498 535.89159,711.6385 535.87115,712.20014 L 535.84402,712.9453 L 535.68658,712.25746 C 535.53779,711.60743 535.51961,711.59772 535.3558,712.08087 C 535.26047,712.36206 535.2888,712.77476 535.41876,712.99799 C 535.54872,713.22122 535.65819,713.30352 535.66202,713.18088 C 535.66586,713.05824 535.82961,713.18721 536.02592,713.46748 C 536.42449,714.03652 536.81696,714.11306 537.2281,713.70192 z M 537.41313,717.74142 C 537.33658,717.54196 537.27396,716.81972 537.27396,716.13646 C 537.27396,715.30408 537.17939,714.88886 536.98736,714.87806 C 536.65383,714.85931 537.47917,714.47565 537.90448,714.45173 C 538.11121,714.44011 538.19108,714.94672 538.19108,716.26986 C 538.19108,717.68483 538.11807,718.1041 537.87169,718.1041 C 537.69602,718.1041 537.48967,717.9409 537.41313,717.74142 z M 518.16967,708.78242 C 518.08429,708.69704 518.01443,708.39112 518.01443,708.10259 C 518.01443,707.68381 518.17756,707.54739 518.82313,707.42628 C 519.97134,707.21088 520.60038,705.95433 519.56207,705.95021 C 519.27834,705.94908 518.04992,705.60468 516.83224,705.18488 C 514.52362,704.38896 511.9494,702.91919 510.26285,701.43404 L 509.27503,700.56418 L 509.91893,699.80815 L 510.56283,699.05212 L 511.93851,700.35396 C 513.56561,701.89372 515.87362,703.44524 517.91167,704.36934 C 519.87709,705.26051 520.07795,705.24064 520.07795,704.15511 C 520.07795,703.32669 519.9708,703.19202 518.25065,701.85866 C 515.10644,699.42145 512.79009,696.04837 511.45733,691.96617 C 510.86931,690.16507 510.82014,689.73043 510.80898,686.23417 C 510.79717,682.53574 510.81379,682.4023 511.55138,680.27289 C 513.66296,674.17685 518.18953,669.65131 524.43427,667.39292 L 526.15387,666.77103 L 524.64291,666.7582 C 520.6901,666.72464 515.57144,669.05045 512.05055,672.47991 C 511.40465,673.10903 510.79919,673.62377 510.70509,673.62377 C 510.61098,673.62377 510.23095,673.30712 509.86057,672.9201 L 509.18715,672.21644 L 509.98963,671.52935 C 511.57009,670.17616 514.1659,668.59397 515.90309,667.925 C 519.11764,666.68712 520.38901,666.54465 528.79059,666.48086 C 536.11862,666.42522 536.55574,666.44593 538.30572,666.93152 C 541.44792,667.80345 545.24331,669.88137 546.84622,671.60734 L 547.36193,672.16263 L 546.69311,672.8034 L 546.02429,673.44417 L 544.34317,671.97969 C 542.00223,669.94044 539.58102,668.49608 537.15932,667.69419 C 534.73199,666.89044 531.93097,666.43751 530.99204,666.69693 C 530.36535,666.87009 530.40869,666.90312 531.75287,667.27684 C 535.1771,668.22886 539.10447,670.86749 541.60224,673.89421 C 548.85764,682.68607 546.83768,696.28407 537.31635,702.74602 C 536.31705,703.42423 536.13849,703.65526 536.13347,704.27644 C 536.13021,704.67884 536.21168,705.06006 536.31449,705.12361 C 536.62869,705.31779 540.05033,703.72066 541.63028,702.64234 C 542.44995,702.08291 543.73732,701.05114 544.49111,700.34952 C 545.24488,699.64791 545.92202,699.07385 545.99585,699.07385 C 546.06968,699.07385 546.42493,699.38161 546.78529,699.75774 C 547.4347,700.43558 547.43661,700.44593 547.00099,700.92729 C 546.75926,701.19439 545.66882,702.01003 544.57779,702.7398 C 542.51684,704.11835 539.94066,705.23621 537.6752,705.73497 C 536.9501,705.89461 536.35684,706.11877 536.35684,706.23309 C 536.35684,706.79816 536.90323,707.32364 537.6332,707.46058 C 538.34447,707.59401 538.43675,707.68787 538.37557,708.2156 L 538.30572,708.81826 L 528.31531,708.87796 C 522.82058,708.91079 518.25504,708.8678 518.16967,708.78242 z M 525.87833,707.34553 C 526.18456,707.2291 526.49114,706.91957 526.55963,706.65769 C 526.6774,706.20732 526.59218,706.18154 524.98601,706.18154 C 523.1476,706.18154 522.78576,706.49168 523.79745,707.2003 C 524.37623,707.60569 525.06721,707.65391 525.87833,707.34553 z M 532.63734,707.2003 C 533.65281,706.48903 533.28758,706.18154 531.42731,706.18154 C 529.67415,706.18154 529.4887,706.2763 529.99431,706.91382 C 530.55154,707.61641 531.84335,707.75643 532.63734,707.2003 z M 526.03923,705.77729 C 526.03923,705.68105 525.36859,705.39225 524.54891,705.1355 L 523.05859,704.66869 L 523.05859,705.31047 C 523.05859,705.94751 523.06962,705.95226 524.54891,705.95226 C 525.36859,705.95226 526.03923,705.87352 526.03923,705.77729 z M 533.33253,705.22342 L 533.4035,704.60923 L 531.90267,705.09719 C 530.20523,705.64907 530.29626,705.99178 532.11515,705.89722 C 533.17019,705.84237 533.26721,705.78867 533.33253,705.22342 z M 526.72707,693.16359 C 526.72707,679.74458 526.83085,680.43111 524.8202,680.54824 C 523.8296,680.60594 523.59715,680.7077 523.35415,681.19001 C 523.1344,681.62617 523.06455,684.32349 523.06197,692.47193 L 523.05859,703.18065 L 524.72087,703.98943 C 525.63513,704.43426 526.46054,704.79993 526.55511,704.80203 C 526.64969,704.80414 526.72707,699.56684 526.72707,693.16359 z M 531.68986,703.99476 L 533.37619,703.18366 L 533.37619,692.66032 C 533.37619,682.29427 533.3016,681.11781 532.61669,680.68231 C 532.11941,680.36611 530.55857,680.49107 530.12701,680.88163 C 529.73117,681.23985 529.70771,681.91976 529.70771,693.03347 C 529.70771,699.50828 529.77427,704.80586 529.85562,704.80586 C 529.93696,704.80586 530.76237,704.44086 531.68986,703.99476 z M 537.85872,699.70946 C 540.21436,697.16509 541.66149,694.48059 542.51991,691.06272 C 543.17917,688.43786 543.19263,684.16023 542.55008,681.48006 C 541.22668,675.95998 536.86434,670.79893 531.44491,668.34165 C 528.79528,667.14025 528.16568,667.07262 526.35641,667.79511 C 523.67862,668.86443 521.70945,670.18556 519.37746,672.47737 C 516.80822,675.00233 515.56443,676.94453 514.49973,680.09401 C 513.80266,682.15601 513.78034,682.34579 513.77747,686.23417 C 513.77454,690.19916 513.78363,690.27297 514.54725,692.48057 C 514.97226,693.70927 515.81508,695.51485 516.42017,696.49297 C 517.53562,698.29606 519.71045,700.9081 520.09629,700.9081 C 520.36334,700.9081 520.36089,683.29078 520.09365,681.90726 C 519.87935,680.79782 519.5828,680.51091 518.64495,680.50568 C 518.09801,680.50264 518.01443,680.411 518.01443,679.81433 L 518.01443,679.12649 L 528.23262,679.12649 L 538.45081,679.12649 L 538.37826,679.75701 C 538.31764,680.28394 538.17387,680.40637 537.50324,680.50217 C 536.83237,680.59801 536.65587,680.74843 536.4271,681.41929 C 536.09656,682.38857 536.00627,701.13738 536.33214,701.13738 C 536.44466,701.13738 537.13162,700.49481 537.85872,699.70946 z M 554.52728,726.47657 C 555.26221,725.82971 555.31514,725.67212 554.74761,725.82053 C 554.45173,725.89791 553.90862,725.41555 552.79873,724.08962 C 551.95245,723.07862 551.26004,722.14369 551.26004,722.01201 C 551.26004,721.68566 551.1104,721.70982 550.44949,722.14287 C 549.93843,722.47772 549.59745,723.12336 550.0936,722.81672 C 550.36869,722.6467 553.29144,725.8643 553.46673,726.53014 C 553.63587,727.17259 553.74261,727.1672 554.52728,726.47657 z M 501.34739,721.51714 C 501.71795,720.92569 501.37074,720.3969 500.6118,720.3969 C 500.12827,720.3969 499.88922,720.53236 499.78318,720.86646 C 499.47406,721.8404 500.79943,722.39173 501.34739,721.51714 z M 558.06748,721.16821 C 558.39528,720.31398 557.13417,719.55847 556.55179,720.26019 C 556.39478,720.44938 556.33338,720.81548 556.41535,721.07373 C 556.60306,721.66517 557.84943,721.73645 558.06748,721.16821 z M 498.13946,718.07545 C 500.20749,717.01035 500.38772,715.37517 498.72304,712.78099 C 498.05887,711.74598 497.98652,711.69722 497.70701,712.09629 C 497.54149,712.3326 496.59023,713.06156 495.59311,713.71618 C 494.30959,714.55884 493.65663,714.85902 493.35715,714.74409 C 492.92139,714.57688 493.03728,714.82609 494.37484,716.93264 C 495.13696,718.13291 496.95583,718.68505 498.13946,718.07545 z M 495.63398,717.4315 C 495.1552,717.2275 494.16931,716.13616 494.16931,715.81017 C 494.16931,715.71746 495.11355,715.04302 496.26763,714.31141 L 498.36594,712.9812 L 498.78971,713.50453 C 499.05129,713.82758 499.21347,714.39579 499.21347,714.98924 C 499.21347,715.77789 499.07609,716.08378 498.44886,716.69171 C 497.6341,717.48141 496.46946,717.7875 495.63398,717.4315 z M 563.6122,715.68636 C 564.78387,713.23347 564.50876,711.56481 562.81608,710.85756 C 561.04507,710.11758 559.74185,710.71269 558.50249,712.82732 C 557.63537,714.30684 557.53832,714.55016 557.90599,714.32294 C 558.19629,714.14352 562.04102,716.1663 562.49476,716.73717 C 562.68391,716.97515 562.85144,717.17372 562.86704,717.17842 C 562.88263,717.18313 563.21795,716.5117 563.6122,715.68636 z M 560.97807,714.77877 C 558.58773,713.46315 558.45508,713.3022 559.09288,712.49137 C 559.79722,711.59594 560.87515,711.18775 561.8199,711.4587 C 562.89213,711.76621 563.87044,712.77291 563.87044,713.56876 C 563.87044,714.30856 563.30023,715.81347 563.02234,715.80707 C 562.92132,715.80474 562.0014,715.34201 560.97807,714.77877 z M 496.23283,707.50504 C 496.23283,707.42768 494.91734,707.32567 493.30951,707.27836 C 491.70168,707.23105 490.21274,707.11136 490.00074,707.01239 C 489.65405,706.85053 489.64126,706.91703 489.8735,707.67376 C 490.10706,708.43476 490.14915,708.46796 490.31431,708.02148 C 490.45716,707.63533 490.65243,707.54354 491.21129,707.59986 C 491.82837,707.66205 491.98095,707.81804 492.33146,708.74505 L 492.73725,709.81824 L 492.11902,710.41054 C 491.779,710.7363 491.41413,710.92401 491.3082,710.82767 C 491.20228,710.73132 491.19534,710.85885 491.29279,711.11106 C 491.39024,711.36326 491.51628,711.7287 491.57286,711.92313 C 491.6446,712.16961 492.3656,711.57561 493.95429,709.96117 C 495.20749,708.68766 496.23283,707.58241 496.23283,707.50504 z M 492.66729,708.59634 C 492.48457,708.15903 492.33507,707.74632 492.33507,707.67922 C 492.33507,707.49872 494.52513,707.53091 494.70833,707.7141 C 494.87801,707.88378 493.51823,709.39146 493.19551,709.39146 C 493.08771,709.39146 492.85001,709.03365 492.66729,708.59634 z M 567.98286,705.26225 C 567.9909,705.0719 567.78211,704.78166 567.51888,704.61727 C 567.07506,704.3401 567.05292,704.35692 567.21426,704.84872 C 567.56784,705.92649 567.05797,707.7865 566.40895,707.7865 C 565.55958,707.7865 564.55828,707.28399 564.55828,706.85774 C 564.55828,705.90852 565.13092,705.13762 565.762,705.23726 C 565.85658,705.2522 565.93396,705.17379 565.93396,705.06303 C 565.93396,704.95226 565.5083,704.75359 564.98806,704.62154 C 564.28712,704.44362 564.10899,704.44828 564.30022,704.63951 C 564.64042,704.9797 564.62573,705.347 564.23446,706.28343 L 563.91064,707.05844 L 563.03074,706.7567 C 562.54679,706.59075 562.11943,706.30039 562.08104,706.11147 C 561.95885,705.51017 562.68433,704.11824 563.22973,703.90755 L 563.7558,703.70433 L 563.1826,703.47657 C 562.86734,703.3513 562.54541,703.31541 562.46719,703.39681 C 562.2703,703.60173 561.34836,706.73985 561.34836,707.2051 C 561.34836,707.41365 561.4402,707.52752 561.55245,707.45814 C 561.86756,707.2634 566.07765,708.66814 566.42184,709.08287 C 566.6866,709.40189 566.8089,709.19666 567.34757,707.52939 C 567.68894,706.47281 567.97481,705.4526 567.98286,705.26225 z M 492.65639,704.02759 C 493.82496,703.53933 494.17137,702.8732 494.1561,701.14368 C 494.14388,699.76016 493.79684,697.32233 493.73712,698.20052 C 493.72262,698.41376 493.63187,698.63698 493.53547,698.69656 C 493.14322,698.93899 488.86891,699.55476 488.46602,699.42689 C 488.05235,699.29559 488.04491,699.35677 488.3076,700.72913 C 488.45919,701.52113 488.75805,702.50184 488.97171,702.90848 C 489.66373,704.22551 491.1224,704.66854 492.65639,704.02759 z M 490.11296,703.19869 C 489.53355,702.96531 488.99296,702.20863 488.77663,701.32818 C 488.66327,700.8668 488.72988,700.66304 489.0477,700.49897 C 489.64507,700.19058 493.16946,699.68089 493.58962,699.84212 C 494.01898,700.00688 494.05103,701.24562 493.64686,702.0545 C 493.11586,703.11721 491.33895,703.69253 490.11296,703.19869 z M 490.95939,695.63465 C 493.09779,695.63465 493.49243,695.69259 493.69239,696.03589 C 493.86932,696.33967 493.92425,696.10297 493.91853,695.06145 C 493.91274,694.00875 493.86228,693.80689 493.70361,694.20165 C 493.50621,694.69274 493.37522,694.71753 490.97817,694.71753 C 488.82189,694.71753 488.42652,694.65988 488.2264,694.31629 C 488.04734,694.00888 487.99269,694.20992 487.99269,695.17609 C 487.99269,696.14227 488.04734,696.34331 488.2264,696.03589 C 488.42635,695.69259 488.82099,695.63465 490.95939,695.63465 z M 563.81623,691.97036 C 564.0352,691.84655 565.22451,691.60525 566.45914,691.43413 C 568.47754,691.15437 568.72539,691.15973 568.91692,691.48727 C 569.09768,691.79638 569.12753,691.7821 569.11405,691.39297 C 569.10532,691.14077 569.02524,690.67647 568.93612,690.36121 C 568.78563,689.82893 568.76512,689.8215 568.64875,690.25711 C 568.5448,690.64625 568.20343,690.77817 566.6461,691.03108 C 565.61356,691.19876 564.72158,691.28878 564.66393,691.23113 C 564.60628,691.17348 565.48044,690.5172 566.60651,689.77273 C 567.73259,689.02826 568.61679,688.38202 568.57142,688.33665 C 568.52604,688.29127 567.38439,687.95783 566.03441,687.59566 C 564.68442,687.23349 563.54455,686.90183 563.50136,686.85864 C 563.34412,686.70141 567.52124,686.17833 567.86886,686.31172 C 568.25982,686.46175 568.31668,685.91142 568.019,684.85849 C 567.87053,684.33336 567.8466,684.32399 567.73361,684.7468 C 567.63003,685.13444 567.23363,685.2733 565.25719,685.61426 C 563.46319,685.92375 562.82824,685.95723 562.58479,685.75519 C 562.32707,685.5413 562.26615,685.5951 562.26899,686.03414 C 562.27464,686.90923 562.50912,687.07918 564.44364,687.61038 C 567.33679,688.4048 567.29081,688.26612 565.12757,689.67337 C 563.47535,690.7482 563.18862,691.02752 563.18585,691.56493 C 563.18225,692.26204 563.2375,692.29757 563.81623,691.97036 z M 494.01323,691.30421 C 493.951,691.06623 494.01225,690.8022 494.14934,690.71748 C 494.53017,690.48211 494.44599,689.18866 494.01914,688.71699 C 493.32852,687.95387 492.42514,688.18655 491.05778,689.47974 C 489.9155,690.56006 489.75882,690.63942 489.23726,690.40178 C 488.20561,689.93173 488.5568,688.70363 489.92763,687.98753 L 490.61547,687.62821 L 489.58371,687.61903 C 488.67275,687.61093 488.54834,687.67026 488.52114,688.12573 C 488.50419,688.40947 488.41749,689.00276 488.32847,689.44417 C 488.20009,690.08073 488.26918,690.37711 488.66252,690.87717 C 489.45169,691.88043 490.43029,691.66763 491.70525,690.21552 C 492.54057,689.26414 493.09718,688.94044 493.5795,689.12553 C 494.33451,689.41525 493.73457,691.27833 492.88627,691.27833 C 492.7241,691.27833 492.52765,691.38151 492.44971,691.50761 C 492.36434,691.64574 492.66945,691.73689 493.21719,691.73689 C 493.99538,691.73689 494.11008,691.67455 494.01323,691.30421 z M 494.72846,685.28174 C 495.1215,685.10265 495.45628,684.62401 495.7643,683.80075 C 496.33522,682.27483 496.59325,681.17047 496.27166,681.62929 C 496.07938,681.90361 495.69866,681.85191 493.81501,681.29565 C 492.589,680.9336 491.44003,680.49149 491.26173,680.3132 C 490.87931,679.93077 490.87328,679.93588 490.53877,680.92645 C 490.3072,681.61215 490.321,681.67866 490.66724,681.5458 C 491.07647,681.38876 493.02291,681.87074 493.02291,682.12911 C 493.02291,682.39637 492.47964,682.69036 491.18867,683.12172 C 489.92745,683.54313 489.35443,683.99256 489.35443,684.56034 C 489.35443,684.78257 489.46045,684.80174 489.75567,684.63288 C 490.1977,684.38005 492.50412,683.48281 492.71201,683.48281 C 492.78388,683.48281 492.78043,683.64505 492.70434,683.84334 C 492.55812,684.2244 492.91945,685.08749 493.34384,685.37086 C 493.70074,685.60917 494.06067,685.586 494.72846,685.28174 z M 493.48625,684.17543 C 493.14055,683.82973 493.06648,683.54302 493.17526,682.97171 C 493.2538,682.55925 493.34856,682.18505 493.38583,682.14017 C 493.47814,682.02903 495.53603,682.82426 495.65524,683.01714 C 495.70763,683.10192 495.55102,683.49932 495.3072,683.90025 C 494.795,684.74249 494.15068,684.83986 493.48625,684.17543 z M 566.56717,680.62021 C 566.28323,680.07829 566.21382,680.05032 565.94796,680.37066 C 565.38861,681.04464 564.60938,680.81335 564.10438,679.82347 C 563.84961,679.32408 563.64116,678.7726 563.64116,678.59796 C 563.64116,678.13688 564.48554,677.44456 564.86861,677.59156 C 565.14283,677.69679 565.13713,677.56725 564.83349,676.79427 L 564.47095,675.87134 L 563.99874,676.5223 C 563.73901,676.88033 562.77849,677.99678 561.86424,679.00331 C 560.94998,680.00984 560.20196,680.92511 560.20196,681.03726 C 560.20196,681.15344 561.45962,681.17677 563.12528,681.09149 C 564.92846,680.99917 566.17783,681.02852 566.38588,681.16809 C 566.87321,681.49502 566.93217,681.31683 566.56717,680.62021 z M 561.57768,680.56747 C 561.57754,680.40978 563.03213,678.89721 563.18392,678.89721 C 563.36029,678.89721 563.87044,680.12389 563.87044,680.54796 C 563.87044,680.66161 563.35458,680.7236 562.72408,680.6857 C 562.09359,680.64781 561.57771,680.59461 561.57768,680.56747 z M 498.80748,677.47586 C 499.4387,676.3166 499.55432,675.96343 499.24917,676.12675 C 498.93071,676.29718 498.44342,676.12433 497.12674,675.37389 C 496.18676,674.83814 495.23997,674.33161 495.02278,674.24826 C 494.80558,674.16492 494.62787,673.93872 494.62787,673.74561 C 494.62787,673.04211 494.26184,673.43596 493.20177,675.28012 L 492.11959,677.16275 L 492.62403,677.69969 C 493.15601,678.26597 493.44132,678.04806 493.06002,677.3667 C 492.8943,677.07058 492.98125,676.67747 493.39157,675.86775 C 493.69747,675.26408 494.00172,674.77017 494.06767,674.77017 C 494.29042,674.77017 495.9716,675.67931 496.07553,675.85598 C 496.27029,676.18702 495.07082,677.79388 494.72733,677.66207 C 494.1481,677.4398 494.37638,677.89637 494.98258,678.17257 C 495.79388,678.54222 495.97846,678.50687 495.84771,678.00688 C 495.73265,677.56688 496.33817,676.14515 496.63996,676.14671 C 497.01464,676.14864 498.29629,677.07724 498.29549,677.3462 C 498.29394,677.87264 497.36453,679.17327 496.90382,679.29375 C 496.4748,679.40594 496.47243,679.42796 496.85801,679.72011 C 497.33843,680.08412 497.46934,679.93342 498.80748,677.47586 z M 558.02716,676.15643 C 557.91271,675.79586 558.23395,675.44917 559.67363,674.37951 C 560.65738,673.6486 561.70796,672.99898 562.00824,672.93593 C 562.54791,672.82262 562.5431,672.80725 561.59197,671.60484 C 560.0169,669.61366 558.69606,669.07804 557.23018,669.83607 C 556.21309,670.36203 555.61636,671.27091 555.61636,672.29409 C 555.61636,673.33127 555.80673,673.74179 557.05702,675.40069 C 558.03052,676.69234 558.25201,676.86488 558.02716,676.15643 z M 556.63108,674.27866 C 556.01167,673.08086 556.14378,672.07223 557.0371,671.17892 C 558.03236,670.18365 559.1192,669.98722 560.13001,670.6199 C 560.5318,670.87139 560.97184,671.28513 561.10788,671.53933 C 561.32914,671.95276 561.14563,672.1596 559.36795,673.50048 C 558.27494,674.32491 557.29587,674.99945 557.19224,674.99945 C 557.08861,674.99945 556.83608,674.6751 556.63108,674.27866 z M 500.69982,674.12532 C 500.39186,674.05509 498.40841,670.68393 498.57628,670.51605 C 498.62324,670.46909 499.17273,670.58455 499.79737,670.77262 C 500.42201,670.9607 501.31281,671.2169 501.77694,671.34196 C 502.25386,671.47047 502.65265,671.73414 502.69406,671.94833 C 502.74879,672.23147 502.92527,672.12018 503.39196,671.50822 C 503.90236,670.83894 503.94064,670.709 503.60127,670.79775 C 503.37284,670.85748 501.96953,670.53761 500.48281,670.08691 C 498.99609,669.63621 497.68266,669.26745 497.56407,669.26745 C 497.44547,669.26745 497.97443,670.44099 498.73952,671.87531 C 499.50461,673.30964 500.13059,674.66236 500.13059,674.88135 C 500.13059,675.20989 500.20785,675.18486 500.57232,674.73825 C 500.91348,674.32021 500.9425,674.18066 500.69982,674.12532 z M 554.5846,667.22882 C 555.35643,666.29185 555.8621,665.86613 556.13224,665.92587 C 556.77504,666.06802 556.59892,665.70331 555.68999,665.01004 C 555.06553,664.53374 554.88656,664.47107 555.00077,664.7687 C 555.17225,665.21558 553.86046,667.05013 553.51993,666.83968 C 553.41193,666.77292 553.32356,665.87222 553.32356,664.83811 C 553.32356,663.25687 553.2561,662.91579 552.89928,662.69295 C 552.49822,662.44248 552.47862,662.52566 552.54108,664.21298 L 552.60715,665.99798 L 551.61279,665.8859 C 550.73128,665.78655 550.57368,665.84212 550.22414,666.37559 C 549.68885,667.19255 550.06509,668.07717 551.45207,669.26273 L 552.49798,670.15674 L 552.96809,669.38862 C 553.22665,668.96615 553.95408,667.99424 554.5846,667.22882 z M 551.18093,668.61888 C 550.24465,667.5843 551.2592,665.91241 552.44838,666.53022 C 553.55916,667.10729 553.57985,667.19721 552.81957,668.14327 C 552.01458,669.14497 551.73142,669.22716 551.18093,668.61888 z M 506.77971,668.32119 C 506.77971,668.19623 506.67173,668.16073 506.53974,668.2423 C 506.40776,668.32387 505.90526,667.94305 505.42307,667.39603 C 504.94089,666.84901 504.17379,665.98875 503.71841,665.48433 C 503.26304,664.97992 502.93689,664.43824 502.99365,664.28061 C 503.15067,663.8445 502.8354,663.94857 502.13679,664.56346 C 501.44921,665.16864 501.32901,665.42332 501.81987,665.23496 C 502.21518,665.08327 505.40215,668.53062 505.40325,669.1111 C 505.40398,669.4979 505.45363,669.49264 506.09187,669.03817 C 506.47018,668.76879 506.77971,668.44615 506.77971,668.32119 z M 509.221,666.33062 C 508.892,666.26278 506.90287,663.33587 507.0713,663.16744 C 507.11615,663.12259 508.02327,663.40195 509.08712,663.78825 C 511.7378,664.75076 511.74269,664.75194 512.39339,664.58862 C 513.0092,664.43406 513.19151,663.99401 512.63973,663.99401 C 512.45793,663.99401 511.72848,663.00731 511.01873,661.80135 C 509.91459,659.92526 509.77197,659.55601 510.03092,659.24384 C 510.29019,658.93126 510.22328,658.936 509.56388,659.2769 C 508.81694,659.66306 508.80787,659.68439 509.25679,659.99883 C 509.61309,660.24839 511.04224,662.47473 511.54831,663.56856 C 511.5859,663.64982 510.35483,663.26056 508.81259,662.70354 C 507.27035,662.14653 505.92828,661.71892 505.83023,661.75332 C 505.73217,661.78771 506.26883,662.79602 507.0228,663.99401 C 507.91083,665.40502 508.36333,666.35155 508.30757,666.68149 C 508.2227,667.18366 508.23093,667.18527 508.89299,666.79613 C 509.34358,666.5313 509.45149,666.37815 509.221,666.33062 z M 546.52257,665.08309 C 546.4182,664.47319 548.56419,660.41075 548.94493,660.49749 C 549.55762,660.63708 549.11043,660.09768 548.2353,659.64154 C 547.55292,659.28586 547.36091,659.24514 547.5734,659.50118 C 547.82676,659.80645 547.70738,660.1879 546.79602,661.98524 C 546.20383,663.15312 545.5473,664.24946 545.33707,664.42156 C 545.09723,664.6179 545.04949,664.77046 545.20892,664.83107 C 545.34867,664.8842 545.6582,665.07543 545.89676,665.25603 C 546.5003,665.71291 546.62447,665.6786 546.52257,665.08309 z M 515.71452,663.16043 C 515.77418,663.10077 515.69604,662.97349 515.54087,662.8776 C 515.3857,662.7817 514.94935,661.81607 514.57119,660.73176 C 514.03556,659.19589 513.93229,658.63233 514.10382,658.18117 C 514.5332,657.05182 516.1439,656.72643 516.74718,657.64716 C 516.93874,657.93951 517.36778,658.93708 517.7006,659.86398 C 518.17212,661.17715 518.24967,661.63902 518.05184,661.9558 C 517.80979,662.34337 517.84628,662.34444 518.83324,661.97865 C 519.67066,661.66828 519.80369,661.54753 519.52928,661.34687 C 519.34269,661.21044 518.86546,660.27997 518.46877,659.27917 C 518.07208,658.27837 517.58523,657.27897 517.38688,657.05829 C 516.70098,656.29517 514.5303,656.67223 513.83358,657.67552 C 513.51438,658.13518 513.65981,659.27169 514.28253,661.18382 C 514.82214,662.84077 514.86106,663.13318 514.56913,663.33685 C 514.32085,663.51007 514.41349,663.5323 514.91868,663.42072 C 515.29674,663.33722 515.65486,663.22009 515.71452,663.16043 z M 542.12069,663.00063 C 541.93027,662.7712 542.07113,662.08582 542.68612,660.24927 C 543.13658,658.90407 543.59917,657.80345 543.71411,657.80345 C 543.82904,657.80345 543.92308,657.71912 543.92308,657.61604 C 543.92308,657.32111 541.57479,656.65705 540.53183,656.65705 C 538.81541,656.65705 537.95582,657.40992 537.61862,659.2086 C 537.32538,660.77276 538.13269,661.71555 540.65272,662.75186 C 542.17318,663.37712 542.47569,663.42838 542.12069,663.00063 z M 539.64771,661.94738 C 538.27684,661.11147 538.13976,658.79859 539.39222,657.63643 C 539.94831,657.12042 540.21376,657.04412 541.28636,657.09196 C 542.68582,657.15437 542.71617,657.30813 541.85366,659.96636 C 541.00157,662.59248 540.88191,662.69994 539.64771,661.94738 z M 528.74759,659.80632 C 528.83884,659.3325 528.17695,659.01322 527.82762,659.36255 C 527.47829,659.71189 527.79756,660.37377 528.27139,660.28252 C 528.491,660.24023 528.70529,660.02594 528.74759,659.80632 z M 528.79059,655.36794 C 528.79059,655.18389 528.55141,655.05209 528.21739,655.05209 C 527.80536,655.05209 527.64419,655.17565 527.64419,655.49154 C 527.64419,655.73324 527.77316,655.97733 527.93079,656.03396 C 528.2948,656.16473 528.79059,655.78068 528.79059,655.36794 z"
       id="path3192" />
    <image
       sodipodi:absref="/home/arnaud/7-phd/manager/vision/skills/driving/graphics/../../images/powerXML/power2.png"
       xlink:href="../../images/powerXML/power2.png"
       width="110.33191"
       height="110.33191"
       id="image3467"
       x="407.99109"
       y="9.3480053" />
    <text
       xml:space="preserve"
       style="font-size:43.74617386px;font-style:italic;font-variant:normal;font-weight:normal;font-stretch:normal;text-align:center;line-height:100%;writing-mode:lr-tb;text-anchor:middle;fill:#000000;fill-opacity:1;stroke:none;stroke-width:10;stroke-linecap:butt;stroke-linejoin:miter;stroke-miterlimit:4;stroke-dasharray:none;stroke-opacity:1;font-family:Sans;-inkscape-font-specification:Sans Italic"
       x="703.53735"
       y="51.160927"
       id="text3471"
       sodipodi:linespacing="100%"
       transform="scale(0.8436796,1.1852841)"><tspan
         sodipodi:role="line"
         x="703.53735"
         y="51.160927"
         style="font-size:43.74617386px;font-style:italic;font-variant:normal;font-weight:normal;font-stretch:normal;text-align:center;line-height:100%;writing-mode:lr-tb;text-anchor:middle;fill:#000000;fill-opacity:1;stroke:none;stroke-width:10;font-family:Sans;-inkscape-font-specification:Sans Italic"
         id="tspan3475">MAGGIE</tspan><tspan
         sodipodi:role="line"
         x="703.53735"
         y="94.907104"
         style="font-size:43.74617386px;font-style:italic;font-variant:normal;font-weight:normal;font-stretch:normal;text-align:center;line-height:100%;writing-mode:lr-tb;text-anchor:middle;fill:#000000;fill-opacity:1;stroke:none;stroke-width:10;font-family:Sans;-inkscape-font-specification:Sans Italic"
         id="tspan3188">WHEEL</tspan></text>
    <rect
       style="fill:#000000;fill-opacity:1;stroke:none;stroke-width:12;stroke-linecap:round;stroke-linejoin:round;stroke-miterlimit:4;stroke-dasharray:none;stroke-opacity:1"
       id="rect2387"
       width="760.66437"
       height="728.2998"
       x="1190.8132"
       y="-6.626018"
       rx="18.094406"
       ry="18.094406" />
    <path
       sodipodi:nodetypes="ccccc"
       id="path3479"
       d="M 1545.5014,400.44852 C 1559.0139,441.52803 1554.8515,516.48468 1559.5014,574.55084 L 1607.7532,574.55084 C 1613.053,516.50083 1607.3469,442.85111 1623.7532,400.44852 L 1545.5014,400.44852 z"
       style="fill:#808080;fill-opacity:1;stroke:none;stroke-width:3;stroke-linecap:round;stroke-linejoin:round;stroke-miterlimit:4;stroke-dasharray:none;stroke-opacity:1"
       inkscape:export-filename="/home/arnaud/robot/src/skills/vision/driving/graphics/wheel_game.png"
       inkscape:export-xdpi="71"
       inkscape:export-ydpi="71" />
    <path
       inkscape:export-ydpi="71.989998"
       inkscape:export-xdpi="71.989998"
       inkscape:export-filename="/home/arnaud/robot/src/skills/vision/driving/graphics/wheel_game.png"
       id="path3481"
       d="M 1583.485,115.17579 C 1449.7806,115.17579 1341.2668,226.50384 1341.2668,363.67584 C 1341.2668,500.84774 1449.7806,612.17584 1583.485,612.17584 C 1717.1895,612.17584 1825.7032,500.84784 1825.7032,363.67584 C 1825.7032,226.50384 1717.1895,115.17578 1583.485,115.17579 z M 1583.485,161.55079 C 1692.2345,161.5508 1780.4701,252.10594 1780.4701,363.67584 C 1780.4701,475.24564 1692.2345,565.80084 1583.485,565.80084 C 1474.7355,565.80084 1386.4695,475.24564 1386.4695,363.67584 C 1386.4695,252.10594 1474.7355,161.55079 1583.485,161.55079 z"
       style="fill:#4d4d4d;fill-opacity:1;stroke:none;stroke-width:3.00000024;stroke-linecap:round;stroke-linejoin:round;stroke-miterlimit:4;stroke-dasharray:none;stroke-opacity:1" />
    <path
       id="path3487"
       d="M 1583.3632,415.96999 C 1594.9242,415.97006 1604.3071,425.59617 1604.3071,437.45704 C 1604.3071,449.31791 1594.9242,458.94409 1583.3632,458.94409 C 1571.8021,458.94402 1562.4193,449.31791 1562.4193,437.45704 C 1562.4193,425.59617 1571.8022,415.96999 1583.3632,415.96999 z"
       style="fill:#1a1a1a;fill-opacity:1;stroke:none;stroke-width:3;stroke-linecap:round;stroke-linejoin:round;stroke-miterlimit:4;stroke-dasharray:none;stroke-opacity:1"
       inkscape:export-filename="/home/arnaud/robot/src/skills/vision/driving/graphics/wheel_game.png"
       inkscape:export-xdpi="71"
       inkscape:export-ydpi="71" />
    <path
       sodipodi:nodetypes="csssc"
       style="fill:#1a1a1a;fill-opacity:1;stroke:none;stroke-width:3;stroke-linecap:round;stroke-linejoin:round;stroke-miterlimit:4;stroke-dasharray:none;stroke-opacity:1"
       d="M 1583.3632,478.75539 C 1591.2733,478.75544 1597.6932,485.34172 1597.6932,493.45704 C 1597.6932,501.57236 1591.2733,508.15869 1583.3632,508.15869 C 1575.453,508.15864 1569.0332,501.57236 1569.0332,493.45704 C 1569.0332,485.34172 1575.4531,478.75539 1583.3632,478.75539 z"
       id="path3489"
       inkscape:export-filename="/home/arnaud/robot/src/skills/vision/driving/graphics/wheel_game.png"
       inkscape:export-xdpi="71"
       inkscape:export-ydpi="71" />
    <path
       sodipodi:nodetypes="cssssscc"
       id="path3491"
       d="M 1382.376,406.96038 C 1393.1197,407.02906 1401.7693,401.60143 1401.7693,394.94426 C 1401.7693,394.94426 1410.7937,367.46678 1423.2057,360.61844 C 1450.6974,345.44981 1519.1738,385.59444 1545.0918,369.39705 C 1563.4079,357.95045 1534.34,316.08204 1534.34,316.08204 C 1497.2952,316.08204 1437.7812,320.40049 1423.2057,316.08204 C 1411.1351,312.50574 1415.9358,304.58291 1403.8124,301.05671 L 1382.376,406.96038 z"
       style="fill:#808080;fill-opacity:1;stroke:none;stroke-width:3;stroke-linecap:round;stroke-linejoin:round;stroke-miterlimit:4;stroke-dasharray:none;stroke-opacity:1"
       inkscape:export-filename="/home/arnaud/robot/src/skills/vision/driving/graphics/wheel_game.png"
       inkscape:export-xdpi="71"
       inkscape:export-ydpi="71" />
    <path
       style="fill:#808080;fill-opacity:1;stroke:none;stroke-width:3;stroke-linecap:round;stroke-linejoin:round;stroke-miterlimit:4;stroke-dasharray:none;stroke-opacity:1"
       d="M 1787.1258,406.96038 C 1776.3821,407.02906 1767.7325,401.60143 1767.7325,394.94426 C 1767.7325,394.94426 1758.7081,367.46678 1746.2961,360.61844 C 1718.8044,345.44981 1650.328,385.59444 1624.41,369.39705 C 1606.0939,357.95045 1635.1618,316.08204 1635.1618,316.08204 C 1672.2066,316.08204 1731.7206,320.40049 1746.2961,316.08204 C 1758.3667,312.50574 1753.566,304.58291 1765.6894,301.05671 L 1787.1258,406.96038 z"
       id="path3503"
       sodipodi:nodetypes="cssssscc"
       inkscape:export-filename="/home/arnaud/robot/src/skills/vision/driving/graphics/wheel_game.png"
       inkscape:export-xdpi="71"
       inkscape:export-ydpi="71" />
    <rect
       ry="18.094406"
       rx="18.094406"
       y="278.71967"
       x="1507.7727"
       height="119.50294"
       width="147.01704"
       id="rect3493"
       style="fill:#808080;fill-opacity:1;stroke:#ffffff;stroke-width:10;stroke-linecap:butt;stroke-linejoin:miter;stroke-miterlimit:4;stroke-dasharray:none;stroke-opacity:1"
       inkscape:export-filename="/home/arnaud/robot/src/skills/vision/driving/graphics/wheel_game.png"
       inkscape:export-xdpi="71"
       inkscape:export-ydpi="71" />
    <path
       sodipodi:nodetypes="csssssss"
       id="path3505"
       d="M 1814.5278,276.47062 C 1826.9864,284.50113 1845.2768,353.91735 1833.1871,417.56289 C 1831.3214,427.38443 1813.2425,434.28096 1803.2188,434.38438 L 1775.8168,434.66711 C 1765.793,434.77053 1758.0428,428.81311 1758.8121,418.83516 C 1760.1759,401.14809 1766.5801,380.29711 1764.0192,352.46422 C 1761.7702,328.02052 1745.0032,289.50499 1750.7277,281.41831 C 1761.3725,266.38118 1804.8664,270.2431 1814.5278,276.47062 z"
       style="fill:#000080;fill-opacity:1;stroke:#333333;stroke-width:8;stroke-linecap:round;stroke-linejoin:round;stroke-miterlimit:4;stroke-dasharray:none;stroke-opacity:1"
       inkscape:export-filename="/home/arnaud/robot/src/skills/vision/driving/graphics/wheel_game.png"
       inkscape:export-xdpi="71"
       inkscape:export-ydpi="71" />
    <image
       sodipodi:absref="/home/arnaud/7-phd/manager/vision/skills/driving/graphics/wheel_lab_logo_nobg.png"
       xlink:href="wheel_lab_logo_nobg.png"
       inkscape:export-ydpi="71"
       inkscape:export-xdpi="71"
       inkscape:export-filename="/home/arnaud/robot/src/skills/vision/driving/graphics/wheel_game.png"
       y="283.543"
       x="1526.542"
       id="image3495"
       height="101.85629"
       width="109.47875" />
    <path
       id="path3497"
       d="M 1583.3632,526.14809 C 1589.4479,526.14813 1594.3863,531.21449 1594.3863,537.45704 C 1594.3863,543.69959 1589.4479,548.76599 1583.3632,548.76599 C 1577.2784,548.76595 1572.3401,543.69959 1572.3401,537.45704 C 1572.3401,531.21449 1577.2785,526.14809 1583.3632,526.14809 z"
       style="fill:#1a1a1a;fill-opacity:1;stroke:none;stroke-width:3;stroke-linecap:round;stroke-linejoin:round;stroke-miterlimit:4;stroke-dasharray:none;stroke-opacity:1"
       sodipodi:nodetypes="csssc"
       inkscape:export-filename="/home/arnaud/robot/src/skills/vision/driving/graphics/wheel_game.png"
       inkscape:export-xdpi="71"
       inkscape:export-ydpi="71" />
    <path
       style="fill:#ff0000;fill-opacity:1;stroke:#333333;stroke-width:8;stroke-linecap:round;stroke-linejoin:round;stroke-miterlimit:4;stroke-dasharray:none;stroke-opacity:1"
       d="M 1354.974,276.47062 C 1342.5154,284.50113 1324.225,353.91735 1336.3147,417.56289 C 1338.1804,427.38443 1356.2593,434.28096 1366.283,434.38438 L 1393.685,434.66711 C 1403.7088,434.77053 1411.459,428.81311 1410.6897,418.83516 C 1409.3259,401.14809 1402.9217,380.29711 1405.4826,352.46422 C 1407.7316,328.02052 1424.4986,289.50499 1418.7741,281.41831 C 1408.1293,266.38118 1364.6354,270.2431 1354.974,276.47062 z"
       id="path3501"
       sodipodi:nodetypes="csssssss"
       inkscape:export-filename="/home/arnaud/robot/src/skills/vision/driving/graphics/wheel_game.png"
       inkscape:export-xdpi="71"
       inkscape:export-ydpi="71" />
  </g>
</svg>
